<mxfile modified="2021-10-17T06:13:00.854Z" host="app.diagrams.net" agent="5.0 (X11; Linux x86_64) AppleWebKit/537.36 (KHTML, like Gecko) Chrome/93.0.4577.63 Safari/537.36" etag="rEYX4ICwW7UoMGPKt5Jz" version="15.5.4" type="github">
  <diagram id="Ht1M8jgEwFfnCIfOTk4-" name="Page-1">
    <mxGraphModel dx="2880" dy="1927" grid="1" gridSize="10" guides="1" tooltips="1" connect="1" arrows="1" fold="1" page="1" pageScale="1" pageWidth="1169" pageHeight="827" background="#ffffff" math="0" shadow="0">
      <root>
        <mxCell id="0" />
        <mxCell id="1" parent="0" />
        <mxCell id="2VNhGdDJXCIvYu7sTkOq-68" value="" style="whiteSpace=wrap;html=1;shadow=0;fontSize=28;strokeWidth=9;verticalAlign=top;textOpacity=0;" vertex="1" parent="1">
          <mxGeometry x="100" y="-290" width="1270" height="260" as="geometry" />
        </mxCell>
        <mxCell id="2VNhGdDJXCIvYu7sTkOq-64" style="edgeStyle=orthogonalEdgeStyle;rounded=0;orthogonalLoop=1;jettySize=auto;html=1;exitX=1;exitY=0.5;exitDx=0;exitDy=0;fontSize=28;verticalAlign=top;" edge="1" parent="1" source="2VNhGdDJXCIvYu7sTkOq-60">
          <mxGeometry relative="1" as="geometry">
            <mxPoint x="1510" y="515.8571428571431" as="targetPoint" />
          </mxGeometry>
        </mxCell>
        <mxCell id="2VNhGdDJXCIvYu7sTkOq-65" style="edgeStyle=orthogonalEdgeStyle;rounded=0;orthogonalLoop=1;jettySize=auto;html=1;exitX=1;exitY=0.75;exitDx=0;exitDy=0;fontSize=28;verticalAlign=top;" edge="1" parent="1" source="2VNhGdDJXCIvYu7sTkOq-60">
          <mxGeometry relative="1" as="geometry">
            <mxPoint x="1470" y="760" as="targetPoint" />
          </mxGeometry>
        </mxCell>
        <mxCell id="2VNhGdDJXCIvYu7sTkOq-69" style="edgeStyle=orthogonalEdgeStyle;rounded=0;orthogonalLoop=1;jettySize=auto;html=1;exitX=1;exitY=0.25;exitDx=0;exitDy=0;fontSize=28;verticalAlign=top;" edge="1" parent="1" source="2VNhGdDJXCIvYu7sTkOq-60" target="2VNhGdDJXCIvYu7sTkOq-70">
          <mxGeometry relative="1" as="geometry">
            <mxPoint x="1550" y="293" as="targetPoint" />
          </mxGeometry>
        </mxCell>
        <mxCell id="2VNhGdDJXCIvYu7sTkOq-60" value="" style="whiteSpace=wrap;html=1;shadow=0;fontSize=28;strokeWidth=9;verticalAlign=top;textOpacity=0;" vertex="1" parent="1">
          <mxGeometry x="470" y="70" width="650" height="890" as="geometry" />
        </mxCell>
        <mxCell id="2VNhGdDJXCIvYu7sTkOq-18" style="edgeStyle=orthogonalEdgeStyle;rounded=0;orthogonalLoop=1;jettySize=auto;html=1;exitX=0;exitY=0.8;exitDx=0;exitDy=0;exitPerimeter=0;fontSize=47;" edge="1" parent="1" source="2VNhGdDJXCIvYu7sTkOq-1" target="2VNhGdDJXCIvYu7sTkOq-14">
          <mxGeometry relative="1" as="geometry" />
        </mxCell>
        <mxCell id="2VNhGdDJXCIvYu7sTkOq-21" style="edgeStyle=orthogonalEdgeStyle;rounded=0;orthogonalLoop=1;jettySize=auto;html=1;exitX=0.65;exitY=0.5;exitDx=0;exitDy=0;exitPerimeter=0;fontSize=47;" edge="1" parent="1" source="2VNhGdDJXCIvYu7sTkOq-1">
          <mxGeometry relative="1" as="geometry">
            <mxPoint x="610" y="-183" as="targetPoint" />
          </mxGeometry>
        </mxCell>
        <mxCell id="2VNhGdDJXCIvYu7sTkOq-1" value="" style="outlineConnect=0;dashed=0;verticalLabelPosition=bottom;verticalAlign=top;align=center;html=1;shape=mxgraph.aws3.api_gateway;fillColor=#D9A741;gradientColor=none;" vertex="1" parent="1">
          <mxGeometry x="386" y="-230" width="76.5" height="93" as="geometry" />
        </mxCell>
        <mxCell id="2VNhGdDJXCIvYu7sTkOq-66" style="edgeStyle=orthogonalEdgeStyle;rounded=0;orthogonalLoop=1;jettySize=auto;html=1;exitX=1;exitY=0.5;exitDx=0;exitDy=0;exitPerimeter=0;fontSize=28;verticalAlign=top;" edge="1" parent="1" source="2VNhGdDJXCIvYu7sTkOq-2">
          <mxGeometry relative="1" as="geometry">
            <mxPoint x="350" y="-184.1428571428571" as="targetPoint" />
          </mxGeometry>
        </mxCell>
        <mxCell id="2VNhGdDJXCIvYu7sTkOq-2" value="" style="outlineConnect=0;dashed=0;verticalLabelPosition=bottom;verticalAlign=top;align=center;html=1;shape=mxgraph.aws3.route_53;fillColor=#F58536;gradientColor=none;" vertex="1" parent="1">
          <mxGeometry x="160" y="-226.25" width="70" height="85.5" as="geometry" />
        </mxCell>
        <mxCell id="2VNhGdDJXCIvYu7sTkOq-77" style="edgeStyle=orthogonalEdgeStyle;rounded=0;orthogonalLoop=1;jettySize=auto;html=1;exitX=1;exitY=0.5;exitDx=0;exitDy=0;exitPerimeter=0;fontSize=28;verticalAlign=top;" edge="1" parent="1" source="2VNhGdDJXCIvYu7sTkOq-3">
          <mxGeometry relative="1" as="geometry">
            <mxPoint x="920" y="-186" as="targetPoint" />
          </mxGeometry>
        </mxCell>
        <mxCell id="2VNhGdDJXCIvYu7sTkOq-3" value="" style="sketch=0;points=[[0,0,0],[0.25,0,0],[0.5,0,0],[0.75,0,0],[1,0,0],[0,1,0],[0.25,1,0],[0.5,1,0],[0.75,1,0],[1,1,0],[0,0.25,0],[0,0.5,0],[0,0.75,0],[1,0.25,0],[1,0.5,0],[1,0.75,0]];outlineConnect=0;fontColor=#232F3E;gradientColor=#F78E04;gradientDirection=north;fillColor=#D05C17;strokeColor=#ffffff;dashed=0;verticalLabelPosition=bottom;verticalAlign=top;align=center;html=1;fontSize=12;fontStyle=0;aspect=fixed;shape=mxgraph.aws4.resourceIcon;resIcon=mxgraph.aws4.lambda;" vertex="1" parent="1">
          <mxGeometry x="640" y="-222.5" width="78" height="78" as="geometry" />
        </mxCell>
        <mxCell id="2VNhGdDJXCIvYu7sTkOq-4" value="" style="outlineConnect=0;dashed=0;verticalLabelPosition=bottom;verticalAlign=top;align=center;html=1;shape=mxgraph.aws3.dynamo_db;fillColor=#2E73B8;gradientColor=none;" vertex="1" parent="1">
          <mxGeometry x="1097" y="-224" width="72" height="81" as="geometry" />
        </mxCell>
        <mxCell id="2VNhGdDJXCIvYu7sTkOq-9" value="" style="outlineConnect=0;dashed=0;verticalLabelPosition=bottom;verticalAlign=top;align=center;html=1;shape=mxgraph.aws3.rds;fillColor=#2E73B8;gradientColor=none;shadow=1;" vertex="1" parent="1">
          <mxGeometry x="1530" y="458.25" width="120" height="90" as="geometry" />
        </mxCell>
        <mxCell id="2VNhGdDJXCIvYu7sTkOq-10" value="" style="outlineConnect=0;dashed=0;verticalLabelPosition=bottom;verticalAlign=top;align=center;html=1;shape=mxgraph.aws3.elasticache;fillColor=#2E73B8;gradientColor=none;shadow=1;" vertex="1" parent="1">
          <mxGeometry x="1490" y="724.5" width="67.5" height="81" as="geometry" />
        </mxCell>
        <mxCell id="2VNhGdDJXCIvYu7sTkOq-63" style="edgeStyle=orthogonalEdgeStyle;rounded=0;orthogonalLoop=1;jettySize=auto;html=1;exitX=0.5;exitY=0;exitDx=0;exitDy=0;fontSize=28;verticalAlign=top;" edge="1" parent="1" source="2VNhGdDJXCIvYu7sTkOq-12" target="2VNhGdDJXCIvYu7sTkOq-20">
          <mxGeometry relative="1" as="geometry">
            <mxPoint x="180" y="-30" as="targetPoint" />
          </mxGeometry>
        </mxCell>
        <mxCell id="2VNhGdDJXCIvYu7sTkOq-12" value="" style="aspect=fixed;perimeter=ellipsePerimeter;html=1;align=center;shadow=0;dashed=0;fontColor=#4277BB;labelBackgroundColor=#ffffff;fontSize=12;spacingTop=3;image;image=img/lib/ibm/devops/devops.svg;" vertex="1" parent="1">
          <mxGeometry x="20" y="440" width="105" height="105" as="geometry" />
        </mxCell>
        <mxCell id="2VNhGdDJXCIvYu7sTkOq-13" value="ALB" style="text;html=1;align=center;verticalAlign=middle;resizable=0;points=[];autosize=1;strokeColor=none;fillColor=none;strokeWidth=6;spacing=10;fontSize=47;" vertex="1" parent="1">
          <mxGeometry x="255.12" y="610" width="120" height="80" as="geometry" />
        </mxCell>
        <mxCell id="2VNhGdDJXCIvYu7sTkOq-47" style="edgeStyle=orthogonalEdgeStyle;rounded=0;orthogonalLoop=1;jettySize=auto;html=1;entryX=0.5;entryY=0;entryDx=0;entryDy=0;entryPerimeter=0;fontSize=33;verticalAlign=top;" edge="1" parent="1" target="2VNhGdDJXCIvYu7sTkOq-45">
          <mxGeometry relative="1" as="geometry">
            <mxPoint x="300" y="200" as="sourcePoint" />
            <Array as="points">
              <mxPoint x="305" y="498" />
            </Array>
          </mxGeometry>
        </mxCell>
        <mxCell id="2VNhGdDJXCIvYu7sTkOq-14" value="" style="outlineConnect=0;dashed=0;verticalLabelPosition=bottom;verticalAlign=top;align=center;html=1;shape=mxgraph.aws3.route_53;fillColor=#F58536;gradientColor=none;" vertex="1" parent="1">
          <mxGeometry x="270" y="90" width="70.5" height="85.5" as="geometry" />
        </mxCell>
        <mxCell id="2VNhGdDJXCIvYu7sTkOq-20" value="Route 53" style="text;html=1;align=center;verticalAlign=middle;resizable=0;points=[];autosize=1;strokeColor=none;fillColor=none;fontSize=33;" vertex="1" parent="1">
          <mxGeometry x="130" y="-120" width="150" height="50" as="geometry" />
        </mxCell>
        <mxCell id="2VNhGdDJXCIvYu7sTkOq-24" value="API Gateway" style="text;html=1;align=center;verticalAlign=middle;resizable=0;points=[];autosize=1;strokeColor=none;fillColor=none;fontSize=33;" vertex="1" parent="1">
          <mxGeometry x="319.25" y="-120" width="210" height="50" as="geometry" />
        </mxCell>
        <mxCell id="2VNhGdDJXCIvYu7sTkOq-27" value="Lambda" style="text;html=1;align=center;verticalAlign=middle;resizable=0;points=[];autosize=1;strokeColor=none;fillColor=none;fontSize=33;" vertex="1" parent="1">
          <mxGeometry x="625.25" y="-120" width="130" height="50" as="geometry" />
        </mxCell>
        <mxCell id="2VNhGdDJXCIvYu7sTkOq-28" value="Dynamo DB" style="text;html=1;align=center;verticalAlign=middle;resizable=0;points=[];autosize=1;strokeColor=none;fillColor=none;fontSize=33;" vertex="1" parent="1">
          <mxGeometry x="1050" y="-137" width="190" height="50" as="geometry" />
        </mxCell>
        <mxCell id="2VNhGdDJXCIvYu7sTkOq-6" value="" style="outlineConnect=0;verticalLabelPosition=bottom;verticalAlign=top;align=center;html=1;shape=mxgraph.aws3.ec2;fillColor=#F58534;gradientColor=none;shadow=0;strokeWidth=9;" vertex="1" parent="1">
          <mxGeometry x="695" y="220" width="76.5" height="93" as="geometry" />
        </mxCell>
        <mxCell id="2VNhGdDJXCIvYu7sTkOq-7" value="" style="outlineConnect=0;verticalLabelPosition=bottom;verticalAlign=top;align=center;html=1;shape=mxgraph.aws3.ec2;fillColor=#F58534;gradientColor=none;shadow=0;strokeWidth=9;" vertex="1" parent="1">
          <mxGeometry x="695" y="660" width="76.5" height="93" as="geometry" />
        </mxCell>
        <mxCell id="2VNhGdDJXCIvYu7sTkOq-8" value="" style="outlineConnect=0;verticalLabelPosition=bottom;verticalAlign=top;align=center;html=1;shape=mxgraph.aws3.auto_scaling;fillColor=#F58534;gradientColor=none;shadow=0;strokeWidth=9;" vertex="1" parent="1">
          <mxGeometry x="660" y="440" width="166" height="126.5" as="geometry" />
        </mxCell>
        <mxCell id="2VNhGdDJXCIvYu7sTkOq-35" value="RDS(Postgres)" style="text;html=1;align=center;verticalAlign=middle;resizable=0;points=[];autosize=1;strokeColor=none;fillColor=none;fontSize=33;" vertex="1" parent="1">
          <mxGeometry x="1480" y="545" width="240" height="50" as="geometry" />
        </mxCell>
        <mxCell id="2VNhGdDJXCIvYu7sTkOq-38" value="Elastc Cache" style="text;html=1;align=center;verticalAlign=middle;resizable=0;points=[];autosize=1;strokeColor=none;fillColor=none;fontSize=33;" vertex="1" parent="1">
          <mxGeometry x="1418.75" y="820" width="210" height="50" as="geometry" />
        </mxCell>
        <mxCell id="2VNhGdDJXCIvYu7sTkOq-40" value="EC2 Subnet 1" style="text;html=1;align=center;verticalAlign=middle;resizable=0;points=[];autosize=1;strokeColor=none;fillColor=none;fontSize=33;" vertex="1" parent="1">
          <mxGeometry x="640" y="320" width="220" height="50" as="geometry" />
        </mxCell>
        <mxCell id="2VNhGdDJXCIvYu7sTkOq-41" value="ASG&lt;br&gt;On Basis of time" style="text;html=1;align=center;verticalAlign=middle;resizable=0;points=[];autosize=1;strokeColor=none;fillColor=none;fontSize=33;" vertex="1" parent="1">
          <mxGeometry x="843.25" y="447.5" width="260" height="90" as="geometry" />
        </mxCell>
        <mxCell id="2VNhGdDJXCIvYu7sTkOq-43" value="DevOps" style="text;html=1;align=center;verticalAlign=middle;resizable=0;points=[];autosize=1;strokeColor=none;fillColor=none;fontSize=33;" vertex="1" parent="1">
          <mxGeometry x="-5" y="555" width="130" height="50" as="geometry" />
        </mxCell>
        <mxCell id="2VNhGdDJXCIvYu7sTkOq-61" style="edgeStyle=orthogonalEdgeStyle;rounded=0;orthogonalLoop=1;jettySize=auto;html=1;exitX=1;exitY=0.5;exitDx=0;exitDy=0;exitPerimeter=0;fontSize=28;verticalAlign=top;" edge="1" parent="1" source="2VNhGdDJXCIvYu7sTkOq-45">
          <mxGeometry relative="1" as="geometry">
            <mxPoint x="440" y="553" as="targetPoint" />
          </mxGeometry>
        </mxCell>
        <mxCell id="2VNhGdDJXCIvYu7sTkOq-45" value="" style="outlineConnect=0;dashed=0;verticalLabelPosition=bottom;verticalAlign=top;align=center;html=1;shape=mxgraph.aws3.application_load_balancer;fillColor=#F58534;gradientColor=none;shadow=0;fontSize=33;strokeWidth=9;" vertex="1" parent="1">
          <mxGeometry x="250.25" y="498" width="129.75" height="112" as="geometry" />
        </mxCell>
        <mxCell id="2VNhGdDJXCIvYu7sTkOq-48" value="" style="rounded=1;arcSize=10;dashed=0;fillColor=none;gradientColor=none;strokeWidth=2;shadow=0;fontSize=33;verticalAlign=top;" vertex="1" parent="1">
          <mxGeometry x="613" y="195" width="260" height="202.75" as="geometry" />
        </mxCell>
        <mxCell id="2VNhGdDJXCIvYu7sTkOq-49" value="" style="dashed=0;html=1;shape=mxgraph.aws3.permissions;fillColor=#D9A741;gradientColor=none;dashed=0;shadow=0;fontSize=33;strokeWidth=9;verticalAlign=top;" vertex="1" parent="1">
          <mxGeometry x="630" y="180" width="30" height="35" as="geometry" />
        </mxCell>
        <mxCell id="2VNhGdDJXCIvYu7sTkOq-51" value="" style="dashed=0;html=1;shape=mxgraph.aws3.permissions;fillColor=#D9A741;gradientColor=none;dashed=0;shadow=0;fontSize=33;strokeWidth=9;verticalAlign=top;" vertex="1" parent="1">
          <mxGeometry x="640" y="605" width="30" height="30" as="geometry" />
        </mxCell>
        <mxCell id="2VNhGdDJXCIvYu7sTkOq-50" value="" style="rounded=1;arcSize=10;dashed=0;fillColor=none;gradientColor=none;strokeWidth=2;shadow=0;fontSize=33;verticalAlign=top;" vertex="1" parent="1">
          <mxGeometry x="625.25" y="620" width="230" height="200" as="geometry" />
        </mxCell>
        <mxCell id="2VNhGdDJXCIvYu7sTkOq-53" value="" style="rounded=1;arcSize=10;dashed=1;strokeColor=#F59D56;fillColor=none;gradientColor=none;dashPattern=8 4;strokeWidth=2;shadow=0;fontSize=33;verticalAlign=top;" vertex="1" parent="1">
          <mxGeometry x="529.25" y="160" width="530" height="265.5" as="geometry" />
        </mxCell>
        <mxCell id="2VNhGdDJXCIvYu7sTkOq-54" value="" style="rounded=1;arcSize=10;dashed=1;strokeColor=#F59D56;fillColor=none;gradientColor=none;dashPattern=8 4;strokeWidth=2;shadow=0;fontSize=33;verticalAlign=top;" vertex="1" parent="1">
          <mxGeometry x="529.25" y="590" width="504.75" height="290" as="geometry" />
        </mxCell>
        <mxCell id="2VNhGdDJXCIvYu7sTkOq-56" value="VPC" style="sketch=0;outlineConnect=0;gradientColor=none;html=1;whiteSpace=wrap;fontSize=12;fontStyle=0;shape=mxgraph.aws4.group;grIcon=mxgraph.aws4.group_vpc;strokeColor=#879196;fillColor=none;verticalAlign=top;align=left;spacingLeft=30;fontColor=#879196;dashed=0;shadow=0;" vertex="1" parent="1">
          <mxGeometry x="580" y="100" width="330" height="800" as="geometry" />
        </mxCell>
        <mxCell id="2VNhGdDJXCIvYu7sTkOq-57" value="EC2 Subnet 2" style="text;html=1;align=center;verticalAlign=middle;resizable=0;points=[];autosize=1;strokeColor=none;fillColor=none;fontSize=33;" vertex="1" parent="1">
          <mxGeometry x="623.25" y="770" width="220" height="50" as="geometry" />
        </mxCell>
        <mxCell id="2VNhGdDJXCIvYu7sTkOq-58" value="&lt;font style=&quot;font-size: 28px;&quot;&gt;Availability Zone A&lt;/font&gt;" style="text;html=1;align=center;verticalAlign=middle;resizable=0;points=[];autosize=1;strokeColor=none;fillColor=none;fontSize=28;rotation=270;" vertex="1" parent="1">
          <mxGeometry x="888.25" y="272.75" width="240" height="40" as="geometry" />
        </mxCell>
        <mxCell id="2VNhGdDJXCIvYu7sTkOq-59" value="Availability Zone B" style="text;html=1;align=center;verticalAlign=middle;resizable=0;points=[];autosize=1;strokeColor=none;fillColor=none;fontSize=30;rotation=270;" vertex="1" parent="1">
          <mxGeometry x="878.25" y="726" width="260" height="40" as="geometry" />
        </mxCell>
        <mxCell id="2VNhGdDJXCIvYu7sTkOq-70" value="" style="sketch=0;points=[[0,0,0],[0.25,0,0],[0.5,0,0],[0.75,0,0],[1,0,0],[0,1,0],[0.25,1,0],[0.5,1,0],[0.75,1,0],[1,1,0],[0,0.25,0],[0,0.5,0],[0,0.75,0],[1,0.25,0],[1,0.5,0],[1,0.75,0]];outlineConnect=0;fontColor=#232F3E;gradientColor=#60A337;gradientDirection=north;fillColor=#277116;strokeColor=#ffffff;dashed=0;verticalLabelPosition=bottom;verticalAlign=top;align=center;html=1;fontSize=12;fontStyle=0;aspect=fixed;shape=mxgraph.aws4.resourceIcon;resIcon=mxgraph.aws4.s3;shadow=0;" vertex="1" parent="1">
          <mxGeometry x="1546.88" y="249.62" width="86.25" height="86.25" as="geometry" />
        </mxCell>
        <mxCell id="2VNhGdDJXCIvYu7sTkOq-79" value="" style="edgeStyle=orthogonalEdgeStyle;rounded=0;orthogonalLoop=1;jettySize=auto;html=1;fontSize=28;verticalAlign=top;" edge="1" parent="1" source="2VNhGdDJXCIvYu7sTkOq-73">
          <mxGeometry relative="1" as="geometry">
            <mxPoint x="1076.9999999999995" y="-186.5" as="targetPoint" />
          </mxGeometry>
        </mxCell>
        <mxCell id="2VNhGdDJXCIvYu7sTkOq-73" value="" style="sketch=0;outlineConnect=0;fontColor=#232F3E;gradientColor=none;fillColor=#527FFF;strokeColor=none;dashed=0;verticalLabelPosition=bottom;verticalAlign=top;align=center;html=1;fontSize=12;fontStyle=0;aspect=fixed;pointerEvents=1;shape=mxgraph.aws4.dynamodb_dax;shadow=0;" vertex="1" parent="1">
          <mxGeometry x="920" y="-222.5" width="78" height="72" as="geometry" />
        </mxCell>
        <mxCell id="2VNhGdDJXCIvYu7sTkOq-80" value="DAX&lt;br&gt;Cluster" style="text;html=1;align=center;verticalAlign=middle;resizable=0;points=[];autosize=1;strokeColor=none;fillColor=none;fontSize=28;" vertex="1" parent="1">
          <mxGeometry x="910" y="-144.5" width="100" height="70" as="geometry" />
        </mxCell>
      </root>
    </mxGraphModel>
  </diagram>
</mxfile>
